<svg xmlns="http://www.w3.org/2000/svg" version="1.1" xmlns:xlink="http://www.w3.org/1999/xlink" xmlns:svgjs="http://svgjs.dev/svgjs" width="1000" height="1000"><g clip-path="url(#SvgjsClipPath1100)"><rect width="1000" height="1000" fill="#ffffff"></rect><g transform="matrix(9,0,0,9,50,95)"><svg xmlns="http://www.w3.org/2000/svg" version="1.1" xmlns:xlink="http://www.w3.org/1999/xlink" xmlns:svgjs="http://svgjs.dev/svgjs" width="100" height="90"><svg xmlns="http://www.w3.org/2000/svg" width="100" height="90" fill="none" viewBox="0 0 100 90">
  <g clip-path="url(#a)">
    <path fill="#F15C25" d="M31.762 49.772H30.25c.199.058.422.081.644.07.282-.012.575-.047.868-.07Z"></path>
    <g filter="url(#b)">
      <path fill="#2B3238" d="M64.275 51.617c-2.216-2.721-4.995-4.73-8.313-6.027a24.192 24.192 0 0 0-3.342-1.028c-.375-.082-.75-.164-1.137-.245v-.14c.657-.14 1.302-.304 1.923-.491 3.916-1.18 7.023-3.352 9.31-6.541 1.934-2.687 3.153-5.607 3.681-8.75.2-1.167.293-2.359.293-3.585 0-6.261-1.665-11.447-4.971-15.57a22.572 22.572 0 0 0-2.415-2.559 19.52 19.52 0 0 0-3.506-2.511C50.956 1.39 44.319 0 35.889 0h-2.708c.07 2.16 1.454 4.217 3.717 4.8 2.462.643 5.405.924 7.398 3.201 1.465 1.238 2.978 2.92 4.162 4.66 1.806.947 3.26 2.174 4.338 3.68 1.595 2.22 2.392 5.046 2.392 8.48 0 6.588-2.896 10.957-8.653 13.13.821 1.098 1.607 2.242 2.603 3.142 1.079.958 2.474 1.6 3.81 1.296a9.084 9.084 0 0 0-3.528 1.951c-.716.63-1.349 1.378-2.076 1.997-1.57 1.344-3.564 2.056-5.534 1.963-.516-.024-1.067-.094-1.536.163-.457.246-.727.783-.797 1.355 2.802.07 5.3.386 7.445.97 1.173.315 2.24.712 3.213 1.191a13.588 13.588 0 0 1 2.661 1.694c3.154 2.593 4.725 6.296 4.725 11.12 0 4.824-1.57 8.41-4.725 11.05-3.154 2.64-7.96 3.96-14.444 3.96h-1.443c.446.689 1.349 1.366 2.873 1.53 4.995.514 6.167 1.215 7.832 4.427-.868-.292-1.97-.409-2.556.304-.2.338-.328.724-.399 1.133-.129.759 0 1.495.305 2.149 6.308-.981 11.467-3.025 15.43-6.19 5.745-4.591 8.63-10.7 8.63-18.34 0-4.906-1.572-9.297-4.726-13.164l-.023-.035Z"></path>
    </g>
    <g filter="url(#c)">
      <path fill="#F15C25" d="M44.636 87.162c.07-.41.2-.783.398-1.134.575-.7 1.689-.595 2.556-.303-1.664-3.212-2.837-3.913-7.832-4.427-1.524-.152-2.427-.841-2.872-1.53H24.059c-.48.362-.797.899-.797 1.448 0 .187.058.386.047.386.105.432.422.852.996 1.19.81.468 1.935.13 2.802.141 1.161.023 2.416-.07 3.541.327 1.548.55 1.982 1.098 3.342 2.056.574.397 1.817 2.126 1.934 2.897-.938-1.18-2.602-.981-3.869-.362-1.043.502-1.993 1.25-2.814 2.149h6.484c3.318 0 6.367-.245 9.216-.69-.293-.653-.434-1.378-.305-2.148Z"></path>
    </g>
    <g filter="url(#d)">
      <path fill="#F15C25" d="M24.434.677c-1.137-2.02-5.417 1.928-6.05 2.348 3.213.876 4.843 4.894 7.2 7.196h10.423c4.185 0 7.68.525 10.493 1.565a17.54 17.54 0 0 1 1.947.864c-1.185-1.752-2.697-3.422-4.163-4.66-1.993-2.278-4.948-2.559-7.398-3.2-2.263-.585-3.647-2.64-3.717-4.802h-9.145c.152.222.293.444.422.678l-.012.011Z"></path>
    </g>
    <path fill="#F15C25" d="M19.064 60.786c-.152.082-.281.222-.41.374a5.893 5.893 0 0 0-1.22 2.605c-.046.28 0 .584.083.876.27.876.95 1.507 1.735 1.635.305.047.598.082.891.094v-5.584c-.152-.035-.305-.081-.469-.093-.211-.023-.434 0-.621.093h.011ZM20.518 36v-2.161c-.504.677-.598 1.6 0 2.16Z"></path>
    <g filter="url(#e)">
      <path fill="#F15C25" d="M34.53 39.55a8.644 8.644 0 0 0 2.25 1.18c1.29.445 2.908.421 3.717-.84-.035.759-1.09 2.593-1.606 3.048-1.231 1.11-1.595 1.694-3.049 2.418-1.043.526-2.274.596-3.4.771-.844.129-1.97-.058-2.708.502-1.56 1.169-.821 2.804.527 3.154h8.079c.387 0 .75.024 1.125.035.07-.572.34-1.11.797-1.355.47-.257 1.02-.187 1.536-.163 1.97.082 3.963-.62 5.535-1.963.727-.619 1.36-1.366 2.075-1.997a9.393 9.393 0 0 1 3.529-1.95c-1.337.303-2.732-.34-3.81-1.297-.997-.888-1.783-2.033-2.604-3.142-2.825 1.063-6.32 1.6-10.517 1.6H34.53Z"></path>
    </g>
    <path fill="#F15C25" d="M17.716 30.802c.082 1.32 1.524 1.051 2.298 1.075.164 0 .34.023.504.058v-1.892c-1.313-.14-2.872-.35-2.802.76Z"></path>
    <g filter="url(#f)">
      <path fill="#F99B1C" d="M17.118 79.78h3.975a.944.944 0 0 1-.95-.947V66.358a11.698 11.698 0 0 1-.891-.093c-.786-.129-1.466-.76-1.735-1.636a1.882 1.882 0 0 1-.082-.876c.164-.97.633-1.904 1.219-2.604.117-.14.246-.28.41-.374.188-.105.41-.117.622-.094.164.012.316.059.469.094V50.706c0-.526.422-.946.95-.946h-3.518 12.674c-1.336-.35-2.075-1.997-.527-3.154.738-.549 1.864-.362 2.708-.502 1.126-.175 2.345-.245 3.4-.771 1.454-.724 1.818-1.308 3.049-2.418.516-.467 1.571-2.29 1.606-3.049-.809 1.262-2.427 1.285-3.717.841a8.833 8.833 0 0 1-2.25-1.18H21.467a.944.944 0 0 1-.95-.946v-2.604c-.598-.561-.504-1.484 0-2.161v-1.904c-.164-.035-.34-.047-.504-.059-.762-.035-2.204.246-2.298-1.074-.07-1.122 1.489-.911 2.802-.76V11.168c0-.526.422-.946.95-.946h4.127c-2.357-2.301-3.986-6.32-7.199-7.196.633-.432 4.913-4.368 6.05-2.348-.129-.233-.281-.455-.422-.677H4.514c.07.537.281 1.051.645 1.402.75.712 1.805.677 2.732.934 1.395.386 3.036 1.285 3.365 2.979-.235-.748-1.29-1.063-1.97-.724-.774.385-1.008 1.261-1.044 2.254-.07 1.81.985 3.586 2.44 4.123.808.292 1.676.234 2.52.35 1.84.246 3.588 1.39 4.749 3.108-1.513-.865-3.436-1.659-4.784-.433-.54.48-.868 1.204-1.349 1.764-1.36 1.6-3.517 1.566-5.416 1.425-.54 1.823 1.031 3.972 2.626 3.575-.34 1.541-1.958 1.974-3.26 2.336-1.301.362-2.849 1.588-2.438 3.095.398 1.449 2.122 1.414 3.353.981 1.231-.432 2.826-.864 3.588.34-.692-.748-1.864-.164-2.404.758-.54.923-.703 2.08-1.149 3.06-.352.772-1.055 1.543-1.84 1.52-.153 0-.376-.141-.47 0-.093.14.07.572.118.7.176.42.527.76.914.888.633.21 1.325 0 1.946-.304-.222.502-.433 1.005-.656 1.519a3.075 3.075 0 0 0-.2.549c-.351 1.588 1.02 2.488 2.1 1.915.492-.257.914-.666 1.395-.97a3.864 3.864 0 0 1 4.15 0c-.387-.245-.868-.291-1.266-.07-.399.223-.692.736-.645 1.262.035.362.211.678.422.923.68.806 1.712 1.028 2.685 1.016.973-.011 1.935-.198 2.896-.035 1.419.234 2.72 1.25 3.447 2.71-.75-.584-1.56-.596-2.462-.63-.621-.024-1.044.338-1.513.817-.703.724-.82 2.897-2.31 3.995-2.497 1.845-2.497 2.418-1.852 3.352.856 1.25 1.993 1.425 2.333 1.448-.234 0-.844.117-1.735.912-.317.28-.633.56-.973.817-1.266.958-2.814 1.379-4.338 1.437-1.126.047-2.38-.327-3.353.432-.692.538-.997 1.589-.54 2.336.399.654 1.208.911 1.958 1.063.739.152 1.501.234 2.193.55.692.315 1.301.899 1.407 1.646-.54-.677-1.689-.56-2.31.047-.621.607-.832 1.519-.88 2.395-.011.21-.023.42.06.607.093.233.292.42.503.549.774.502 1.76.572 2.615.923a4.155 4.155 0 0 1 2.45 2.943c-2.884.222-2.684 2.78-6.741 3.785-.645.163-.985 1.086-.692 1.682.363.747 1.172.7 1.888.584.867-.14 1.77-.327 2.614 0 .47.175.88.455 1.278.76.891.688 1.724 1.54 2.052 2.616-.281-.293-.903-.234-1.254-.117-.294.105-.552.28-.798.479-.176.14-.34.28-.48.455-.364.467-.434 1.087-.446 1.682-.012.631.035 1.297.364 1.834.375.62 1.066.97 1.735 1.238.293.117.598.234.903.28.21.036.422.036.621.047.328 0 .668.012.997.024.27 0 .41-.024.656-.129.27-.105.727-.245.493.21-.2.386-.575.666-.903.947-.457.385-.903.98-.68 1.53.129.327.445.525.762.677a5.874 5.874 0 0 0 2.779.56c.938-.034 1.876-.291 2.814-.21 1.618.14 2.403 1.052 2.403 1.052s-1.067.163-1.29.269a4.43 4.43 0 0 0-1.008.665c-.188.164-.363.35-.54.538H29.3c.82-.9 1.77-1.647 2.814-2.15 1.278-.619 2.931-.817 3.87.363-.118-.771-1.361-2.488-1.936-2.897-1.36-.958-1.793-1.507-3.341-2.056-1.114-.397-2.38-.292-3.54-.327-.869-.023-1.994.315-2.803-.14-.575-.327-.891-.748-.997-1.192 0 0-.047-.187-.047-.385 0-.56.317-1.098.798-1.449h-6.941l-.059-.035Z"></path>
    </g>
    <g filter="url(#g)">
      <path fill="#FEE15E" d="M20.893 87.5c-.938-.081-1.864.164-2.814.21a5.818 5.818 0 0 1-2.779-.56c-.316-.152-.633-.35-.762-.678-.222-.548.235-1.144.68-1.53.329-.28.704-.56.903-.946.235-.455-.222-.315-.492-.21a1.378 1.378 0 0 1-.657.128c-.328 0-.668-.023-.996-.023-.211 0-.423 0-.622-.047-.316-.046-.61-.163-.903-.28-.668-.269-1.348-.62-1.735-1.238-.328-.537-.375-1.203-.363-1.834.011-.584.082-1.215.445-1.682.14-.175.305-.327.48-.456.247-.198.505-.373.798-.478.352-.117.973-.176 1.255.116-.329-1.074-1.15-1.939-2.052-2.616-.399-.304-.81-.584-1.278-.76-.844-.326-1.747-.14-2.615 0-.703.117-1.524.164-1.887-.584-.282-.595.047-1.518.691-1.681 4.057-.993 3.858-3.563 6.742-3.785a4.155 4.155 0 0 0-2.45-2.944c-.856-.35-1.841-.42-2.615-.922-.211-.14-.41-.316-.504-.55-.07-.186-.07-.408-.059-.607.059-.864.258-1.787.88-2.394.621-.608 1.782-.725 2.31-.047-.106-.748-.716-1.332-1.408-1.647-.691-.315-1.453-.409-2.192-.549-.75-.152-1.56-.409-1.958-1.063-.457-.748-.153-1.799.54-2.336.972-.748 2.239-.386 3.352-.432 1.525-.059 3.072-.48 4.339-1.437.34-.257.656-.537.973-.818.89-.794 1.5-.9 1.735-.91-.34-.024-1.477-.188-2.333-1.45-.645-.945-.645-1.506 1.852-3.352 1.49-1.098 1.607-3.27 2.31-3.994.469-.48.903-.841 1.512-.818.903.035 1.712.047 2.463.63-.727-1.46-2.029-2.476-3.447-2.71-.962-.151-1.935.036-2.896.036-.962 0-2.005-.21-2.685-1.016-.211-.257-.387-.573-.422-.923-.047-.514.246-1.04.645-1.262.398-.222.879-.163 1.266.07a3.818 3.818 0 0 0-4.15 0c-.47.304-.904.701-1.396.97-1.079.572-2.45-.327-2.099-1.916a2.76 2.76 0 0 1 .2-.549c.222-.502.433-1.004.656-1.518-.621.303-1.301.514-1.946.303-.387-.128-.739-.455-.915-.887-.058-.129-.21-.56-.117-.701.094-.152.317 0 .469 0 .786.023 1.49-.748 1.84-1.519.446-.98.61-2.137 1.15-3.06.54-.923 1.712-1.507 2.403-.76-.762-1.214-2.356-.782-3.587-.338-1.231.432-2.967.467-3.354-.981-.41-1.507 1.138-2.722 2.44-3.095 1.3-.374 2.919-.806 3.259-2.337-1.595.398-3.166-1.752-2.627-3.574 1.9.14 4.057.175 5.417-1.425.48-.56.82-1.285 1.348-1.764 1.349-1.226 3.272-.432 4.784.432-1.16-1.717-2.896-2.85-4.748-3.107-.845-.117-1.712-.046-2.521-.35-1.454-.537-2.51-2.313-2.439-4.123.035-.993.27-1.87 1.044-2.255.68-.339 1.735-.023 1.97.724-.317-1.693-1.97-2.593-3.366-2.978-.938-.257-1.993-.222-2.732-.935-.363-.35-.574-.852-.644-1.401H.973a.844.844 0 0 0-.34.07.63.63 0 0 0-.188.117C.422.187.387.199.363.222a.988.988 0 0 0-.305.56v88.435a.95.95 0 0 0 .305.55c.024.023.059.035.082.058.059.047.118.082.188.117.105.046.223.07.34.07h19.475c.175-.175.351-.374.539-.538.305-.257.645-.49 1.008-.665.223-.105 1.29-.269 1.29-.269s-.785-.911-2.404-1.051l.012.011Z"></path>
    </g>
  </g>
  <path fill="#163040" d="M100 3.762 86.863 34h-7.12L92.895 5.445H76V0h23.972v3.762H100Z"></path>
  <defs>
    <filter id="b" width="39.843" height="93.346" x="31.181" y="-1" color-interpolation-filters="sRGB" filterUnits="userSpaceOnUse">
      <feFlood flood-opacity="0" result="BackgroundImageFix"></feFlood>
      <feColorMatrix in="SourceAlpha" result="hardAlpha" values="0 0 0 0 0 0 0 0 0 0 0 0 0 0 0 0 0 0 127 0"></feColorMatrix>
      <feOffset dy="1"></feOffset>
      <feGaussianBlur stdDeviation="1"></feGaussianBlur>
      <feComposite in2="hardAlpha" operator="out"></feComposite>
      <feColorMatrix values="0 0 0 0 0 0 0 0 0 0 0 0 0 0 0 0 0 0 0.6 0"></feColorMatrix>
      <feBlend in2="BackgroundImageFix" result="effect1_dropShadow_639_362605"></feBlend>
      <feBlend in="SourceGraphic" in2="effect1_dropShadow_639_362605" result="shape"></feBlend>
    </filter>
    <filter id="c" width="28.329" height="14.232" x="21.262" y="78.768" color-interpolation-filters="sRGB" filterUnits="userSpaceOnUse">
      <feFlood flood-opacity="0" result="BackgroundImageFix"></feFlood>
      <feColorMatrix in="SourceAlpha" result="hardAlpha" values="0 0 0 0 0 0 0 0 0 0 0 0 0 0 0 0 0 0 127 0"></feColorMatrix>
      <feOffset dy="1"></feOffset>
      <feGaussianBlur stdDeviation="1"></feGaussianBlur>
      <feComposite in2="hardAlpha" operator="out"></feComposite>
      <feColorMatrix values="0 0 0 0 0 0 0 0 0 0 0 0 0 0 0 0 0 0 0.6 0"></feColorMatrix>
      <feBlend in2="BackgroundImageFix" result="effect1_dropShadow_639_362605"></feBlend>
      <feBlend in="SourceGraphic" in2="effect1_dropShadow_639_362605" result="shape"></feBlend>
    </filter>
    <filter id="d" width="34.062" height="16.662" x="16.384" y="-1.012" color-interpolation-filters="sRGB" filterUnits="userSpaceOnUse">
      <feFlood flood-opacity="0" result="BackgroundImageFix"></feFlood>
      <feColorMatrix in="SourceAlpha" result="hardAlpha" values="0 0 0 0 0 0 0 0 0 0 0 0 0 0 0 0 0 0 127 0"></feColorMatrix>
      <feOffset dy="1"></feOffset>
      <feGaussianBlur stdDeviation="1"></feGaussianBlur>
      <feComposite in2="hardAlpha" operator="out"></feComposite>
      <feColorMatrix values="0 0 0 0 0 0 0 0 0 0 0 0 0 0 0 0 0 0 0.6 0"></feColorMatrix>
      <feBlend in2="BackgroundImageFix" result="effect1_dropShadow_639_362605"></feBlend>
      <feBlend in="SourceGraphic" in2="effect1_dropShadow_639_362605" result="shape"></feBlend>
    </filter>
    <filter id="e" width="28.08" height="15.868" x="26.857" y="36.951" color-interpolation-filters="sRGB" filterUnits="userSpaceOnUse">
      <feFlood flood-opacity="0" result="BackgroundImageFix"></feFlood>
      <feColorMatrix in="SourceAlpha" result="hardAlpha" values="0 0 0 0 0 0 0 0 0 0 0 0 0 0 0 0 0 0 127 0"></feColorMatrix>
      <feOffset dy="1"></feOffset>
      <feGaussianBlur stdDeviation="1"></feGaussianBlur>
      <feComposite in2="hardAlpha" operator="out"></feComposite>
      <feColorMatrix values="0 0 0 0 0 0 0 0 0 0 0 0 0 0 0 0 0 0 0.6 0"></feColorMatrix>
      <feBlend in2="BackgroundImageFix" result="effect1_dropShadow_639_362605"></feBlend>
      <feBlend in="SourceGraphic" in2="effect1_dropShadow_639_362605" result="shape"></feBlend>
    </filter>
    <filter id="f" width="41.235" height="94.047" x="1.262" y="-1" color-interpolation-filters="sRGB" filterUnits="userSpaceOnUse">
      <feFlood flood-opacity="0" result="BackgroundImageFix"></feFlood>
      <feColorMatrix in="SourceAlpha" result="hardAlpha" values="0 0 0 0 0 0 0 0 0 0 0 0 0 0 0 0 0 0 127 0"></feColorMatrix>
      <feOffset dy="1"></feOffset>
      <feGaussianBlur stdDeviation="1"></feGaussianBlur>
      <feComposite in2="hardAlpha" operator="out"></feComposite>
      <feColorMatrix values="0 0 0 0 0 0 0 0 0 0 0 0 0 0 0 0 0 0 0.6 0"></feColorMatrix>
      <feBlend in2="BackgroundImageFix" result="effect1_dropShadow_639_362605"></feBlend>
      <feBlend in="SourceGraphic" in2="effect1_dropShadow_639_362605" result="shape"></feBlend>
    </filter>
    <filter id="g" width="25.227" height="92.035" x="-.942" y="-.023" color-interpolation-filters="sRGB" filterUnits="userSpaceOnUse">
      <feFlood flood-opacity="0" result="BackgroundImageFix"></feFlood>
      <feColorMatrix in="SourceAlpha" result="hardAlpha" values="0 0 0 0 0 0 0 0 0 0 0 0 0 0 0 0 0 0 127 0"></feColorMatrix>
      <feOffset dy="1"></feOffset>
      <feGaussianBlur stdDeviation=".5"></feGaussianBlur>
      <feComposite in2="hardAlpha" operator="out"></feComposite>
      <feColorMatrix values="0 0 0 0 0 0 0 0 0 0 0 0 0 0 0 0 0 0 0.6 0"></feColorMatrix>
      <feBlend in2="BackgroundImageFix" result="effect1_dropShadow_639_362605"></feBlend>
      <feBlend in="SourceGraphic" in2="effect1_dropShadow_639_362605" result="shape"></feBlend>
    </filter>
    <clipPath id="a">
      <path fill="#fff" d="M0 0h69v90H0z"></path>
    </clipPath>
  <clipPath id="SvgjsClipPath1100"><rect width="1000" height="1000" x="0" y="0" rx="100" ry="100"></rect></clipPath></defs>
</svg></svg></g></g></svg>