<svg width="113" height="114" viewBox="0 0 113 114" fill="none" xmlns="http://www.w3.org/2000/svg">
<g clip-path="url(#clip0_17_586)">
<path d="M38.262 49.7715H36.7495C36.9488 49.8299 37.1716 49.8532 37.3944 49.8416C37.6758 49.8299 37.9689 49.7948 38.262 49.7715Z" fill="#F15C25"/>
<g filter="url(#filter0_d_17_586)">
<path d="M70.7749 51.6171C68.5589 48.8955 65.7801 46.8864 62.462 45.5899C61.4068 45.181 60.293 44.8306 59.1205 44.562C58.7453 44.4802 58.3701 44.3984 57.9832 44.3167V44.1765C58.6398 44.0363 59.2846 43.8728 59.9061 43.6859C63.8221 42.5062 66.9292 40.3335 69.2155 37.1447C71.1501 34.4581 72.3694 31.538 72.8971 28.3958C73.0964 27.2278 73.1902 26.0363 73.1902 24.8099C73.1902 18.549 71.5253 13.3628 68.2189 9.23946C67.492 8.34004 66.683 7.47567 65.8036 6.68138C64.7718 5.74692 63.5993 4.90591 62.2979 4.17002C57.4556 1.39001 50.8194 0 42.3893 0H39.6809C39.7513 2.16093 41.1348 4.21674 43.3976 4.80078C45.8598 5.44322 48.8027 5.72356 50.7959 8.0013C52.2615 9.23946 53.774 10.9215 54.9582 12.6619C56.7638 13.608 58.2177 14.8345 59.2964 16.3413C60.8909 18.5607 61.6882 21.3874 61.6882 24.8215C61.6882 31.4095 58.7922 35.7781 53.0354 37.9507C53.8561 39.0487 54.6417 40.1934 55.6383 41.0928C56.7169 42.0506 58.1122 42.6931 59.4488 42.3894C58.1708 42.7515 56.9632 43.4173 55.9197 44.34C55.2044 44.9708 54.5713 45.7184 53.8444 46.3374C52.2733 47.6807 50.2801 48.3932 48.3103 48.2998C47.7944 48.2764 47.2434 48.2064 46.7744 48.4633C46.3171 48.7086 46.0474 49.2459 45.9771 49.8183C48.7793 49.8884 51.2767 50.2038 53.4223 50.7878C54.5948 51.1032 55.6617 51.5003 56.6349 51.9792C57.6197 52.4581 58.5108 53.0305 59.2964 53.6729C62.4503 56.2661 64.0214 59.9689 64.0214 64.793C64.0214 69.6171 62.4503 73.2031 59.2964 75.843C56.1424 78.4828 51.3353 79.8027 44.8515 79.8027H43.4094C43.8549 80.4919 44.7577 81.1694 46.2819 81.3329C51.2767 81.8468 52.4491 82.5477 54.114 85.7599C53.2464 85.4679 52.1443 85.3511 51.5581 86.0636C51.3587 86.4023 51.2298 86.7878 51.1594 87.1966C51.0304 87.9559 51.1594 88.6918 51.4643 89.3459C57.7722 88.3647 62.931 86.3206 66.894 83.1551C72.6391 78.5646 75.5234 72.4556 75.5234 64.8164C75.5234 59.9104 73.9523 55.5185 70.7983 51.6522L70.7749 51.6171Z" fill="#2B3238"/>
</g>
<g filter="url(#filter1_d_17_586)">
<path d="M51.1359 87.1615C51.2062 86.7527 51.3352 86.3789 51.5345 86.0284C52.109 85.3276 53.2229 85.4327 54.0905 85.7247C52.4256 82.5125 51.2531 81.8117 46.2584 81.2978C44.7342 81.1459 43.8314 80.4567 43.3858 79.7676H30.559C30.0783 80.1297 29.7617 80.667 29.7617 81.216C29.7617 81.4029 29.8203 81.6015 29.8086 81.6015C29.9141 82.0336 30.2307 82.4541 30.8052 82.7929C31.6142 83.2601 32.7398 82.9214 33.6074 82.9331C34.7682 82.9564 36.0227 82.863 37.1483 83.2601C38.696 83.8091 39.1298 84.3581 40.4898 85.3159C41.0644 85.7131 42.3072 87.4418 42.4244 88.2127C41.4864 87.033 39.8215 87.2316 38.5553 87.8506C37.5118 88.3529 36.5621 89.1005 35.7413 89.9999H42.2251C45.5432 89.9999 48.5916 89.7546 51.4407 89.3107C51.1476 88.6566 51.0069 87.9324 51.1359 87.1615Z" fill="#F15C25"/>
</g>
<g filter="url(#filter2_d_17_586)">
<path d="M30.9342 0.677444C29.7969 -1.34332 25.5174 2.60476 24.8843 3.02527C28.0969 3.90132 29.7266 7.91949 32.0833 10.2206H42.5065C46.6923 10.2206 50.1862 10.7462 53.0002 11.7858C53.6919 12.0428 54.3368 12.3348 54.9465 12.6502C53.7623 10.8981 52.2498 9.22774 50.7842 7.98958C48.791 5.71184 45.8364 5.4315 43.3859 4.78906C41.123 4.20502 39.7395 2.14922 39.6692 -0.0117188H30.5239C30.6763 0.210215 30.817 0.432149 30.946 0.665763L30.9342 0.677444Z" fill="#F15C25"/>
</g>
<path d="M25.5644 60.7864C25.412 60.8682 25.283 61.0084 25.154 61.1602C24.5795 61.8611 24.1105 62.7955 23.9346 63.765C23.8877 64.0454 23.9346 64.3491 24.0167 64.6411C24.2864 65.5171 24.9664 66.1479 25.752 66.2764C26.0568 66.3231 26.3499 66.3581 26.6431 66.3698V60.7864C26.4906 60.7514 26.3382 60.7047 26.1741 60.693C25.963 60.6696 25.7403 60.693 25.5527 60.7864H25.5644Z" fill="#F15C25"/>
<path d="M27.0183 35.9998V33.8389C26.5141 34.5163 26.4203 35.4391 27.0183 35.9998Z" fill="#F15C25"/>
<g filter="url(#filter3_d_17_586)">
<path d="M41.0291 39.5508C41.7326 40.0531 42.483 40.4619 43.2803 40.7306C44.57 41.1744 46.188 41.1511 46.997 39.8896C46.9618 40.6488 45.9066 42.4827 45.3907 42.9382C44.1596 44.0479 43.7962 44.6319 42.3423 45.3561C41.2988 45.8818 40.0677 45.9519 38.9421 46.1271C38.0979 46.2556 36.9724 46.0687 36.2337 46.6293C34.6743 47.7974 35.413 49.4327 36.7613 49.7831H44.8397C45.2266 49.7831 45.59 49.8065 45.9652 49.8182C46.0356 49.2458 46.3053 48.7085 46.7625 48.4632C47.2315 48.2062 47.7826 48.2763 48.2985 48.2997C50.2682 48.3814 52.2614 47.6806 53.8325 46.3373C54.5595 45.7182 55.1926 44.9707 55.9078 44.3399C56.9513 43.4288 58.159 42.763 59.4369 42.3892C58.1003 42.6929 56.7051 42.0505 55.6264 41.0927C54.6298 40.2049 53.8443 39.0602 53.0235 37.9506C50.1979 39.0135 46.7039 39.5508 42.5064 39.5508H41.0291Z" fill="#F15C25"/>
</g>
<path d="M24.2159 30.802C24.298 32.122 25.7401 31.8533 26.514 31.8767C26.6781 31.8767 26.854 31.9 27.0181 31.9351V30.0428C25.705 29.9026 24.1456 29.6924 24.2159 30.802Z" fill="#F15C25"/>
<g filter="url(#filter4_d_17_586)">
<path d="M23.618 79.7794H27.5927C27.0651 79.7794 26.643 79.3588 26.643 78.8332V66.3582C26.3499 66.3348 26.045 66.3115 25.7519 66.2648C24.9664 66.1363 24.2863 65.5055 24.0167 64.6295C23.9229 64.3374 23.8877 64.0337 23.9346 63.7534C24.0987 62.7839 24.5677 61.8494 25.154 61.1486C25.2712 61.0084 25.4002 60.8683 25.5643 60.7748C25.7519 60.6697 25.9747 60.658 26.1857 60.6814C26.3499 60.6931 26.5023 60.7398 26.6547 60.7748V50.706C26.6547 50.1804 27.0768 49.7599 27.6044 49.7599H24.087H36.7614C35.4248 49.4095 34.6862 47.7625 36.2338 46.6061C36.9725 46.0571 38.0981 46.244 38.9422 46.1038C40.0678 45.9286 41.2872 45.8585 42.3424 45.3329C43.7963 44.6087 44.1597 44.0247 45.3908 42.915C45.9067 42.4478 46.962 40.6256 46.9971 39.8663C46.1881 41.1278 44.5701 41.1512 43.2804 40.7073C42.4948 40.4387 41.7327 40.0298 41.0292 39.5276H27.9679C27.4403 39.5276 27.0182 39.1071 27.0182 38.5814V35.9766C26.4202 35.416 26.514 34.4932 27.0182 33.8157V31.9117C26.854 31.8767 26.6782 31.865 26.514 31.8533C25.7519 31.8183 24.3098 32.0986 24.216 30.7787C24.1456 29.6574 25.705 29.8676 27.0182 30.0195V11.1668C27.0182 10.6411 27.4403 10.2206 27.9679 10.2206H32.095C29.7383 7.91953 28.1086 3.90136 24.896 3.02531C25.5292 2.59312 29.8087 -1.34328 30.946 0.677482C30.817 0.443868 30.6646 0.221934 30.5239 0H11.0139C11.0843 0.537313 11.2953 1.05127 11.6588 1.40169C12.4092 2.11421 13.4644 2.07917 14.3907 2.33615C15.7859 2.72161 17.4274 3.62103 17.7557 5.31473C17.5212 4.56716 16.4659 4.25178 15.7859 4.59053C15.0121 4.97599 14.7776 5.85204 14.7424 6.84491C14.6721 8.65542 15.7273 10.4309 17.1811 10.9682C17.9902 11.2602 18.8578 11.2018 19.702 11.3186C21.5427 11.5639 23.2897 12.7086 24.4505 14.4257C22.938 13.5613 21.0151 12.767 19.6668 13.9935C19.1275 14.4724 18.7992 15.1966 18.3184 15.7573C16.9584 17.3576 14.801 17.3225 12.9016 17.1823C12.3623 19.0045 13.9334 21.1538 15.528 20.7567C15.1879 22.2985 13.5699 22.7307 12.2685 23.0928C10.967 23.4549 9.41938 24.6814 9.82975 26.1882C10.2284 27.6366 11.9519 27.6016 13.183 27.1694C14.4141 26.7372 16.0087 26.305 16.7708 27.5081C16.079 26.7605 14.9066 27.3446 14.3672 28.2674C13.8279 29.1901 13.6637 30.3465 13.2182 31.3277C12.8665 32.0986 12.163 32.8696 11.3774 32.8462C11.225 32.8462 11.0022 32.706 10.9084 32.8462C10.8146 32.9864 10.9788 33.4186 11.0257 33.547C11.2015 33.9675 11.5533 34.3063 11.9402 34.4348C12.5733 34.645 13.2651 34.4348 13.8865 34.1311C13.6637 34.6334 13.4527 35.1356 13.2299 35.6496C13.1478 35.8248 13.0775 36.0117 13.0306 36.1986C12.6789 37.7871 14.0506 38.6866 15.1293 38.1142C15.6218 37.8572 16.0439 37.4484 16.5246 37.1447C17.8026 36.3387 19.4088 36.3387 20.6751 37.1447C20.2882 36.8994 19.8075 36.8527 19.4088 37.0746C19.0102 37.2966 18.7171 37.8105 18.764 38.3361C18.7992 38.6982 18.975 39.0136 19.1861 39.2589C19.8661 40.0649 20.8979 40.2868 21.871 40.2751C22.8442 40.2635 23.8056 40.0766 24.767 40.2401C26.1857 40.4737 27.4872 41.4899 28.2141 42.95C27.4637 42.366 26.6547 42.3543 25.7519 42.3193C25.1305 42.2959 24.7084 42.658 24.2394 43.1369C23.5359 43.8611 23.4187 46.0337 21.9297 47.1317C19.4323 48.9773 19.4323 49.5496 20.0772 50.4841C20.9331 51.7339 22.0704 51.9091 22.4104 51.9325C22.1759 51.9325 21.5662 52.0493 20.6751 52.8436C20.3585 53.1239 20.042 53.4043 19.702 53.6613C18.4357 54.6191 16.888 55.0396 15.3638 55.098C14.2382 55.1447 12.9837 54.7709 12.0105 55.5302C11.3188 56.0675 11.0139 57.1188 11.4712 57.8663C11.8698 58.5204 12.6789 58.7774 13.4292 58.9293C14.1679 59.0811 14.93 59.1629 15.6218 59.4783C16.3135 59.7936 16.9232 60.3777 17.0287 61.1252C16.4894 60.4478 15.3404 60.5646 14.719 61.172C14.0975 61.7794 13.8865 62.6905 13.8396 63.5665C13.8279 63.7768 13.8162 63.987 13.8982 64.1739C13.992 64.4075 14.1913 64.5944 14.4024 64.7229C15.1762 65.2252 16.1611 65.2953 17.017 65.6457C18.2481 66.1479 19.1978 67.2927 19.4675 68.5892C16.5832 68.8112 16.7825 71.3692 12.7258 72.3738C12.0809 72.5373 11.7409 73.4601 12.034 74.0558C12.3975 74.8034 13.2065 74.7566 13.9217 74.6398C14.7893 74.4997 15.6921 74.3128 16.5363 74.6398C17.0053 74.815 17.4156 75.0954 17.8143 75.3991C18.7054 76.0882 19.5378 76.9409 19.8661 78.0156C19.5847 77.7235 18.9633 77.782 18.6116 77.8988C18.3184 78.0039 18.0605 78.1791 17.8143 78.3777C17.6384 78.5178 17.4743 78.658 17.3336 78.8332C16.9701 79.3004 16.8998 79.9195 16.888 80.5152C16.8763 81.146 16.9232 81.8118 17.2515 82.3491C17.6267 82.9682 18.3184 83.3186 18.9868 83.5873C19.2799 83.7041 19.5847 83.8209 19.8896 83.8676C20.1006 83.9027 20.3117 83.9026 20.511 83.9143C20.8393 83.9143 21.1793 83.926 21.5076 83.9377C21.7772 83.9377 21.9179 83.9143 22.1642 83.8092C22.4338 83.7041 22.8911 83.5639 22.6566 84.0195C22.4573 84.4049 22.0821 84.6853 21.7538 84.9656C21.2965 85.3511 20.851 85.9468 21.0738 86.4958C21.2027 86.8228 21.5193 87.0214 21.8359 87.1733C22.7035 87.5821 23.6649 87.7807 24.6146 87.7339C25.5526 87.6989 26.4906 87.4419 27.4286 87.5237C29.0466 87.6638 29.8321 88.5749 29.8321 88.5749C29.8321 88.5749 28.7652 88.7385 28.5424 88.8436C28.1789 89.0188 27.8389 89.2407 27.5341 89.5094C27.3465 89.6729 27.1706 89.8598 26.9947 90.0467H35.8C36.6207 89.1473 37.5704 88.3997 38.6139 87.8975C39.8919 87.2784 41.5451 87.0798 42.4831 88.2596C42.3659 87.4886 41.123 85.7716 40.5485 85.3627C39.1885 84.4049 38.7546 83.8559 37.207 83.3069C36.0931 82.9098 34.8269 83.0149 33.6661 82.9799C32.7985 82.9565 31.6729 83.2952 30.8639 82.8397C30.2894 82.5126 29.9728 82.0921 29.8673 81.6483C29.8673 81.6483 29.8204 81.4614 29.8204 81.2628C29.8204 80.7021 30.137 80.1648 30.6177 79.8144H23.6766L23.618 79.7794Z" fill="#F99B1C"/>
</g>
<g filter="url(#filter5_d_17_586)">
<path d="M27.3932 87.5004C26.4552 87.4186 25.529 87.6639 24.5793 87.7106C23.6178 87.7573 22.6564 87.5588 21.8005 87.1499C21.4839 86.9981 21.1674 86.7995 21.0384 86.4725C20.8156 85.9235 21.2729 85.3278 21.7184 84.9423C22.0467 84.6619 22.4219 84.3816 22.6212 83.9962C22.8557 83.5406 22.3985 83.6808 22.1288 83.7859C21.8826 83.891 21.7536 83.9144 21.4722 83.9144C21.1439 83.9144 20.8039 83.891 20.4756 83.891C20.2646 83.891 20.0535 83.891 19.8542 83.8443C19.5376 83.7976 19.2445 83.6808 18.9514 83.564C18.2831 83.2953 17.603 82.9449 17.2161 82.3258C16.8878 81.7885 16.8409 81.1227 16.8527 80.4919C16.8644 79.9079 16.9347 79.2771 17.2982 78.8099C17.4389 78.6347 17.603 78.4828 17.7789 78.3544C18.0251 78.1558 18.2831 77.9806 18.5762 77.8755C18.9279 77.7586 19.5493 77.7002 19.8307 77.9923C19.5024 76.9176 18.6817 76.0533 17.7789 75.3758C17.3803 75.0721 16.9699 74.7917 16.5009 74.6165C15.6567 74.2895 14.7539 74.4764 13.8863 74.6165C13.1828 74.7333 12.3621 74.7801 11.9986 74.0325C11.7172 73.4368 12.0455 72.514 12.6904 72.3505C16.7471 71.3576 16.5478 68.7878 19.4321 68.5659C19.1624 67.2694 18.2127 66.1246 16.9816 65.6224C16.1257 65.2719 15.1408 65.2019 14.367 64.6996C14.156 64.5594 13.9567 64.3842 13.8629 64.1506C13.7925 63.9637 13.7925 63.7418 13.8042 63.5432C13.8629 62.6788 14.0622 61.7561 14.6836 61.1487C15.305 60.5413 16.4657 60.4244 16.9934 61.1019C16.8878 60.3544 16.2781 59.7703 15.5864 59.4549C14.8946 59.1396 14.1325 59.0461 13.3939 58.906C12.6435 58.7541 11.8345 58.4971 11.4358 57.843C10.9786 57.0954 11.2834 56.0442 11.9752 55.5069C12.9483 54.7593 14.2146 55.1214 15.3284 55.0747C16.8527 55.0163 18.4003 54.5958 19.6666 53.6379C20.0066 53.381 20.3232 53.1006 20.6397 52.8203C21.5308 52.026 22.1405 51.9209 22.375 51.9092C22.035 51.8858 20.8977 51.7223 20.0418 50.4608C19.3969 49.5146 19.3969 48.954 21.8943 47.1084C23.3833 46.0104 23.5006 43.8378 24.2041 43.1136C24.673 42.6347 25.1069 42.2726 25.7165 42.296C26.6194 42.331 27.4284 42.3427 28.1787 42.9267C27.4518 41.4666 26.1504 40.4504 24.7317 40.2168C23.7702 40.0649 22.7971 40.2518 21.8357 40.2518C20.8742 40.2518 19.8307 40.0416 19.1507 39.2356C18.9397 38.9786 18.7638 38.6633 18.7286 38.3128C18.6817 37.7989 18.9748 37.2732 19.3735 37.0513C19.7721 36.8294 20.2528 36.8878 20.6397 37.1214C19.3852 36.3037 17.7672 36.3037 16.4892 37.1214C16.0202 37.4251 15.5864 37.8222 15.0939 38.0909C14.0153 38.6633 12.6435 37.7638 12.9952 36.1753C13.0421 35.9767 13.1125 35.8015 13.1945 35.6263C13.4173 35.124 13.6284 34.6217 13.8511 34.1078C13.2297 34.4115 12.5497 34.6217 11.9048 34.4115C11.5179 34.283 11.1662 33.9559 10.9903 33.5237C10.9317 33.3952 10.7793 32.9631 10.873 32.8229C10.9668 32.671 11.1896 32.8229 11.342 32.8229C12.1276 32.8463 12.8311 32.0753 13.1828 31.3044C13.6284 30.3232 13.7925 29.1668 14.3318 28.244C14.8712 27.3213 16.0437 26.7372 16.7354 27.4848C15.9733 26.27 14.3787 26.7022 13.1476 27.1461C11.9165 27.5782 10.1813 27.6133 9.79437 26.1649C9.38401 24.6581 10.9317 23.4433 12.2331 23.0695C13.5346 22.6957 15.1526 22.2635 15.4926 20.7333C13.898 21.1305 12.3269 18.9812 12.8663 17.159C14.7657 17.2992 16.923 17.3342 18.2831 15.734C18.7638 15.1733 19.1038 14.4491 19.6314 13.9702C20.9798 12.7437 22.9026 13.538 24.4151 14.4024C23.2544 12.6853 21.5191 11.5523 19.6666 11.2953C18.8224 11.1785 17.9548 11.2486 17.1458 10.9449C15.6919 10.4076 14.6367 8.6321 14.707 6.82159C14.7422 5.82873 14.9767 4.95267 15.7505 4.56721C16.4306 4.22847 17.4858 4.54385 17.7203 5.29142C17.4037 3.59771 15.7505 2.69829 14.3553 2.31283C13.4173 2.05585 12.3621 2.0909 11.6234 1.37837C11.26 1.02795 11.0489 0.525679 10.9786 -0.0233154H7.47288C7.35563 -0.0233154 7.23838 4.60241e-05 7.13286 0.0467689C7.06251 0.0701304 7.00389 0.116853 6.94527 0.163576C6.92182 0.186938 6.88664 0.198618 6.86319 0.22198C6.69905 0.373829 6.59352 0.572402 6.55835 0.782655V89.2174C6.59352 89.4394 6.71077 89.6263 6.86319 89.7664C6.88664 89.7898 6.92182 89.8015 6.94527 89.8248C7.00389 89.8716 7.06251 89.9066 7.13286 89.9416C7.23838 89.9884 7.35563 90.0117 7.47288 90.0117H26.9476C27.1235 89.8365 27.2994 89.6379 27.487 89.4744C27.7918 89.2174 28.1318 88.9838 28.4953 88.8086C28.7181 88.7035 29.785 88.54 29.785 88.54C29.785 88.54 28.9995 87.6289 27.3815 87.4887L27.3932 87.5004Z" fill="#FEE15E"/>
</g>
</g>
<path d="M106.5 3.76206L93.3629 34H86.2434L99.3946 5.44509H82.5V0H106.472V3.76206H106.5Z" fill="#163040"/>
<path d="M1.23295 111V100.818H4.79261C5.50189 100.818 6.08688 100.941 6.54759 101.186C7.00829 101.428 7.35133 101.754 7.5767 102.165C7.80208 102.573 7.91477 103.026 7.91477 103.523C7.91477 103.96 7.83688 104.321 7.68111 104.607C7.52865 104.892 7.32647 105.117 7.07457 105.283C6.82599 105.448 6.55587 105.571 6.2642 105.651V105.75C6.57576 105.77 6.88897 105.879 7.20384 106.078C7.5187 106.277 7.7822 106.562 7.99432 106.933C8.20644 107.304 8.3125 107.759 8.3125 108.295C8.3125 108.806 8.1965 109.265 7.96449 109.673C7.73248 110.08 7.36624 110.403 6.86577 110.642C6.36529 110.881 5.71402 111 4.91193 111H1.23295ZM2.46591 109.906H4.91193C5.71733 109.906 6.28906 109.75 6.62713 109.439C6.96851 109.124 7.1392 108.743 7.1392 108.295C7.1392 107.951 7.05137 107.633 6.87571 107.341C6.70005 107.046 6.44981 106.811 6.125 106.635C5.80019 106.456 5.41572 106.366 4.97159 106.366H2.46591V109.906ZM2.46591 105.293H4.75284C5.12405 105.293 5.45881 105.22 5.7571 105.074C6.05871 104.928 6.29735 104.723 6.47301 104.457C6.65199 104.192 6.74148 103.881 6.74148 103.523C6.74148 103.075 6.5857 102.696 6.27415 102.384C5.9626 102.069 5.46875 101.912 4.79261 101.912H2.46591V105.293ZM10.3384 111V100.818H16.4833V101.912H11.5714V105.352H16.1651V106.446H11.5714V109.906H16.5629V111H10.3384ZM18.7056 111V100.818H19.9386V105.352H25.3675V100.818H26.6005V111H25.3675V106.446H19.9386V111H18.7056ZM29.4865 111H28.1939L31.9325 100.818H33.2053L36.9439 111H35.6513L32.6087 102.429H32.5291L29.4865 111ZM29.9638 107.023H35.174V108.116H29.9638V107.023ZM37.9904 100.818L41.0131 109.389H41.1325L44.1552 100.818H45.4478L41.7092 111H40.4364L36.6978 100.818H37.9904ZM47.0337 111V100.818H53.1786V101.912H48.2667V105.352H52.8604V106.446H48.2667V109.906H53.2582V111H47.0337ZM55.4009 111V100.818H58.8413C59.64 100.818 60.293 100.962 60.8001 101.251C61.3105 101.536 61.6883 101.922 61.9336 102.409C62.1789 102.896 62.3015 103.44 62.3015 104.04C62.3015 104.64 62.1789 105.185 61.9336 105.675C61.6916 106.166 61.3171 106.557 60.81 106.849C60.3029 107.137 59.6533 107.281 58.8612 107.281H56.3952V106.188H58.8214C59.3683 106.188 59.8074 106.093 60.1388 105.904C60.4703 105.715 60.7106 105.46 60.8597 105.138C61.0122 104.814 61.0884 104.447 61.0884 104.04C61.0884 103.632 61.0122 103.268 60.8597 102.946C60.7106 102.625 60.4686 102.373 60.1339 102.19C59.7991 102.005 59.355 101.912 58.8015 101.912H56.6339V111H55.4009ZM64.2876 111V100.818H65.5206V109.906H70.2536V111H64.2876ZM78.8445 100.818H80.0774V107.56C80.0774 108.256 79.9134 108.877 79.5852 109.424C79.2604 109.968 78.8014 110.397 78.2081 110.712C77.6148 111.023 76.9188 111.179 76.12 111.179C75.3213 111.179 74.6252 111.023 74.032 110.712C73.4387 110.397 72.978 109.968 72.6499 109.424C72.325 108.877 72.1626 108.256 72.1626 107.56V100.818H73.3956V107.46C73.3956 107.957 73.505 108.4 73.7237 108.788C73.9425 109.172 74.254 109.475 74.6584 109.697C75.0661 109.916 75.5533 110.026 76.12 110.026C76.6868 110.026 77.174 109.916 77.5817 109.697C77.9893 109.475 78.3009 109.172 78.5163 108.788C78.7351 108.4 78.8445 107.957 78.8445 107.46V100.818ZM88.1078 103.364C88.0481 102.86 87.8062 102.469 87.3819 102.19C86.9577 101.912 86.4373 101.773 85.8208 101.773C85.3701 101.773 84.9757 101.846 84.6376 101.991C84.3029 102.137 84.041 102.338 83.8521 102.593C83.6665 102.848 83.5737 103.138 83.5737 103.463C83.5737 103.735 83.6383 103.969 83.7676 104.164C83.9002 104.356 84.0692 104.517 84.2747 104.646C84.4802 104.772 84.6956 104.877 84.921 104.96C85.1464 105.039 85.3535 105.104 85.5424 105.153L86.5765 105.432C86.8417 105.501 87.1367 105.598 87.4615 105.72C87.7896 105.843 88.1028 106.01 88.4011 106.222C88.7027 106.431 88.9513 106.7 89.1468 107.028C89.3424 107.356 89.4402 107.759 89.4402 108.236C89.4402 108.786 89.296 109.283 89.0076 109.727C88.7226 110.171 88.305 110.524 87.7548 110.786C87.2079 111.048 86.5434 111.179 85.7612 111.179C85.032 111.179 84.4006 111.061 83.867 110.826C83.3367 110.591 82.9191 110.263 82.6142 109.842C82.3126 109.421 82.1419 108.932 82.1021 108.375H83.3748C83.408 108.759 83.5372 109.078 83.7626 109.33C83.9913 109.578 84.2797 109.764 84.6277 109.886C84.979 110.006 85.3568 110.065 85.7612 110.065C86.2318 110.065 86.6544 109.989 87.0289 109.837C87.4035 109.681 87.7001 109.465 87.9189 109.19C88.1376 108.912 88.247 108.587 88.247 108.216C88.247 107.878 88.1525 107.603 87.9636 107.391C87.7747 107.179 87.5261 107.006 87.2179 106.874C86.9096 106.741 86.5765 106.625 86.2186 106.526L84.9657 106.168C84.1703 105.939 83.5405 105.612 83.0765 105.188C82.6125 104.764 82.3805 104.209 82.3805 103.523C82.3805 102.953 82.5346 102.455 82.8429 102.031C83.1544 101.604 83.572 101.272 84.0957 101.037C84.6227 100.798 85.211 100.679 85.8606 100.679C86.5169 100.679 87.1002 100.797 87.6106 101.032C88.121 101.264 88.5254 101.582 88.8237 101.987C89.1253 102.391 89.2844 102.85 89.301 103.364H88.1078ZM95.544 111L100.098 101.991V101.912H94.848V100.818H101.371V101.972L96.8366 111H95.544ZM102.349 111.08C102.104 111.08 101.893 110.992 101.718 110.816C101.542 110.64 101.454 110.43 101.454 110.185C101.454 109.939 101.542 109.729 101.718 109.553C101.893 109.378 102.104 109.29 102.349 109.29C102.594 109.29 102.805 109.378 102.98 109.553C103.156 109.729 103.244 109.939 103.244 110.185C103.244 110.347 103.202 110.496 103.119 110.632C103.04 110.768 102.932 110.877 102.796 110.96C102.664 111.04 102.515 111.08 102.349 111.08ZM108.295 111.139C107.546 111.139 106.908 110.935 106.381 110.528C105.854 110.117 105.451 109.522 105.173 108.743C104.894 107.961 104.755 107.016 104.755 105.909C104.755 104.809 104.894 103.869 105.173 103.09C105.454 102.308 105.859 101.711 106.386 101.3C106.916 100.886 107.552 100.679 108.295 100.679C109.037 100.679 109.672 100.886 110.199 101.3C110.729 101.711 111.134 102.308 111.412 103.09C111.694 103.869 111.835 104.809 111.835 105.909C111.835 107.016 111.695 107.961 111.417 108.743C111.139 109.522 110.736 110.117 110.209 110.528C109.682 110.935 109.044 111.139 108.295 111.139ZM108.295 110.045C109.037 110.045 109.614 109.687 110.025 108.972C110.436 108.256 110.642 107.235 110.642 105.909C110.642 105.027 110.547 104.277 110.358 103.657C110.173 103.037 109.904 102.565 109.553 102.24C109.205 101.915 108.785 101.753 108.295 101.753C107.559 101.753 106.984 102.116 106.57 102.842C106.155 103.564 105.948 104.587 105.948 105.909C105.948 106.791 106.041 107.54 106.227 108.156C106.412 108.773 106.679 109.242 107.027 109.563C107.378 109.885 107.801 110.045 108.295 110.045Z" fill="#2B3238"/>
<defs>
<filter id="filter0_d_17_586" x="37.6809" y="-1" width="39.8425" height="93.3458" filterUnits="userSpaceOnUse" color-interpolation-filters="sRGB">
<feFlood flood-opacity="0" result="BackgroundImageFix"/>
<feColorMatrix in="SourceAlpha" type="matrix" values="0 0 0 0 0 0 0 0 0 0 0 0 0 0 0 0 0 0 127 0" result="hardAlpha"/>
<feOffset dy="1"/>
<feGaussianBlur stdDeviation="1"/>
<feComposite in2="hardAlpha" operator="out"/>
<feColorMatrix type="matrix" values="0 0 0 0 0 0 0 0 0 0 0 0 0 0 0 0 0 0 0.6 0"/>
<feBlend mode="normal" in2="BackgroundImageFix" result="effect1_dropShadow_17_586"/>
<feBlend mode="normal" in="SourceGraphic" in2="effect1_dropShadow_17_586" result="shape"/>
</filter>
<filter id="filter1_d_17_586" x="27.7617" y="78.7676" width="28.3289" height="14.2323" filterUnits="userSpaceOnUse" color-interpolation-filters="sRGB">
<feFlood flood-opacity="0" result="BackgroundImageFix"/>
<feColorMatrix in="SourceAlpha" type="matrix" values="0 0 0 0 0 0 0 0 0 0 0 0 0 0 0 0 0 0 127 0" result="hardAlpha"/>
<feOffset dy="1"/>
<feGaussianBlur stdDeviation="1"/>
<feComposite in2="hardAlpha" operator="out"/>
<feColorMatrix type="matrix" values="0 0 0 0 0 0 0 0 0 0 0 0 0 0 0 0 0 0 0.6 0"/>
<feBlend mode="normal" in2="BackgroundImageFix" result="effect1_dropShadow_17_586"/>
<feBlend mode="normal" in="SourceGraphic" in2="effect1_dropShadow_17_586" result="shape"/>
</filter>
<filter id="filter2_d_17_586" x="22.8843" y="-1.01172" width="34.0623" height="16.6619" filterUnits="userSpaceOnUse" color-interpolation-filters="sRGB">
<feFlood flood-opacity="0" result="BackgroundImageFix"/>
<feColorMatrix in="SourceAlpha" type="matrix" values="0 0 0 0 0 0 0 0 0 0 0 0 0 0 0 0 0 0 127 0" result="hardAlpha"/>
<feOffset dy="1"/>
<feGaussianBlur stdDeviation="1"/>
<feComposite in2="hardAlpha" operator="out"/>
<feColorMatrix type="matrix" values="0 0 0 0 0 0 0 0 0 0 0 0 0 0 0 0 0 0 0.6 0"/>
<feBlend mode="normal" in2="BackgroundImageFix" result="effect1_dropShadow_17_586"/>
<feBlend mode="normal" in="SourceGraphic" in2="effect1_dropShadow_17_586" result="shape"/>
</filter>
<filter id="filter3_d_17_586" x="33.3574" y="36.9506" width="28.0796" height="15.8677" filterUnits="userSpaceOnUse" color-interpolation-filters="sRGB">
<feFlood flood-opacity="0" result="BackgroundImageFix"/>
<feColorMatrix in="SourceAlpha" type="matrix" values="0 0 0 0 0 0 0 0 0 0 0 0 0 0 0 0 0 0 127 0" result="hardAlpha"/>
<feOffset dy="1"/>
<feGaussianBlur stdDeviation="1"/>
<feComposite in2="hardAlpha" operator="out"/>
<feColorMatrix type="matrix" values="0 0 0 0 0 0 0 0 0 0 0 0 0 0 0 0 0 0 0.6 0"/>
<feBlend mode="normal" in2="BackgroundImageFix" result="effect1_dropShadow_17_586"/>
<feBlend mode="normal" in="SourceGraphic" in2="effect1_dropShadow_17_586" result="shape"/>
</filter>
<filter id="filter4_d_17_586" x="7.76245" y="-1" width="41.2346" height="94.0468" filterUnits="userSpaceOnUse" color-interpolation-filters="sRGB">
<feFlood flood-opacity="0" result="BackgroundImageFix"/>
<feColorMatrix in="SourceAlpha" type="matrix" values="0 0 0 0 0 0 0 0 0 0 0 0 0 0 0 0 0 0 127 0" result="hardAlpha"/>
<feOffset dy="1"/>
<feGaussianBlur stdDeviation="1"/>
<feComposite in2="hardAlpha" operator="out"/>
<feColorMatrix type="matrix" values="0 0 0 0 0 0 0 0 0 0 0 0 0 0 0 0 0 0 0.6 0"/>
<feBlend mode="normal" in2="BackgroundImageFix" result="effect1_dropShadow_17_586"/>
<feBlend mode="normal" in="SourceGraphic" in2="effect1_dropShadow_17_586" result="shape"/>
</filter>
<filter id="filter5_d_17_586" x="5.55835" y="-0.0233154" width="25.2266" height="92.035" filterUnits="userSpaceOnUse" color-interpolation-filters="sRGB">
<feFlood flood-opacity="0" result="BackgroundImageFix"/>
<feColorMatrix in="SourceAlpha" type="matrix" values="0 0 0 0 0 0 0 0 0 0 0 0 0 0 0 0 0 0 127 0" result="hardAlpha"/>
<feOffset dy="1"/>
<feGaussianBlur stdDeviation="0.5"/>
<feComposite in2="hardAlpha" operator="out"/>
<feColorMatrix type="matrix" values="0 0 0 0 0 0 0 0 0 0 0 0 0 0 0 0 0 0 0.6 0"/>
<feBlend mode="normal" in2="BackgroundImageFix" result="effect1_dropShadow_17_586"/>
<feBlend mode="normal" in="SourceGraphic" in2="effect1_dropShadow_17_586" result="shape"/>
</filter>
<clipPath id="clip0_17_586">
<rect width="69" height="90" fill="white" transform="translate(6.5)"/>
</clipPath>
</defs>
</svg>
